<?xml version="1.0" encoding="utf-8"?>
<!-- Generator: Adobe Illustrator 15.0.0, SVG Export Plug-In  -->
<!DOCTYPE svg PUBLIC "-//W3C//DTD SVG 1.1//EN" "http://www.w3.org/Graphics/SVG/1.1/DTD/svg11.dtd" [
	<!ENTITY ns_flows "http://ns.adobe.com/Flows/1.0/">
]>
<svg version="1.1"
	 xmlns="http://www.w3.org/2000/svg" xmlns:xlink="http://www.w3.org/1999/xlink" xmlns:a="http://ns.adobe.com/AdobeSVGViewerExtensions/3.0/"
	 x="0px" y="0px" width="1122px" height="468px" viewBox="-17.978 -44.831 1122 468"
	 enable-background="new -17.978 -44.831 1122 468" xml:space="preserve">
<defs>
</defs>
<line display="none" opacity="0.25" fill="none" stroke="#262625" stroke-miterlimit="10" x1="105.022" y1="264.752" x2="442.2" y2="70.082"/>
<line display="none" opacity="0.25" fill="none" stroke="#262625" stroke-miterlimit="10" x1="25.022" y1="264.752" x2="425.022" y2="33.812"/>
<line display="none" opacity="0.25" fill="none" stroke="#262625" stroke-miterlimit="10" x1="65.022" y1="334.034" x2="485.022" y2="91.547"/>
<line display="none" opacity="0.25" fill="none" stroke="#262625" stroke-miterlimit="10" x1="145.022" y1="334.034" x2="526.252" y2="113.931"/>
<line display="none" opacity="0.25" fill="none" stroke="#262625" stroke-miterlimit="10" x1="124.072" y1="392.317" x2="673.636" y2="75.027"/>
<line display="none" opacity="0.25" fill="none" stroke="#262625" stroke-miterlimit="10" x1="89.862" y1="400.521" x2="598.484" y2="106.868"/>
<line display="none" opacity="0.25" fill="none" stroke="#262625" stroke-miterlimit="10" x1="202.962" y1="358.317" x2="693.636" y2="75.027"/>
<line display="none" opacity="0.25" fill="none" stroke="#262625" stroke-miterlimit="10" x1="209.375" y1="412.351" x2="847.083" y2="44.169"/>
<line display="none" opacity="0.25" fill="none" stroke="#262625" stroke-miterlimit="10" x1="445.022" y1="287.846" x2="835.022" y2="62.679"/>
<line display="none" opacity="0.25" fill="none" stroke="#262625" stroke-miterlimit="10" x1="248.171" y1="413.045" x2="855.022" y2="62.679"/>
<line display="none" opacity="0.25" fill="none" stroke="#262625" stroke-miterlimit="10" x1="376.731" y1="385.009" x2="967.083" y2="44.169"/>
<line display="none" opacity="0.25" fill="none" stroke="#262625" stroke-miterlimit="10" x1="456.731" y1="385.009" x2="945.022" y2="103.094"/>
<line display="none" opacity="0.25" fill="none" stroke="#262625" stroke-miterlimit="10" x1="536.731" y1="385.009" x2="985.022" y2="126.188"/>
<line display="none" opacity="0.25" fill="none" stroke="#262625" stroke-miterlimit="10" x1="659.103" y1="360.546" x2="1025.022" y2="149.282"/>
<line display="none" opacity="0.25" fill="none" stroke="#262625" stroke-miterlimit="10" x1="732.022" y1="364.634" x2="1065.022" y2="172.376"/>
<line display="none" opacity="0.25" fill="none" stroke="#262625" stroke-miterlimit="10" x1="776.731" y1="385.009" x2="1085.022" y2="207.017"/>
<line display="none" opacity="0.25" fill="none" stroke="#262625" stroke-miterlimit="10" x1="343.122" y1="32.714" x2="925.478" y2="368.938"/>
<line display="none" opacity="0.25" fill="none" stroke="#262625" stroke-miterlimit="10" x1="325.022" y1="68.453" x2="845.478" y2="368.938"/>
<line display="none" opacity="0.25" fill="none" stroke="#262625" stroke-miterlimit="10" x1="275.443" y1="86.016" x2="765.478" y2="368.938"/>
<line display="none" opacity="0.25" fill="none" stroke="#262625" stroke-miterlimit="10" x1="231.56" y1="106.868" x2="685.478" y2="368.938"/>
<line display="none" opacity="0.25" fill="none" stroke="#262625" stroke-miterlimit="10" x1="195.022" y1="131.961" x2="605.478" y2="368.938"/>
<line display="none" opacity="0.25" fill="none" stroke="#262625" stroke-miterlimit="10" x1="158.176" y1="156.876" x2="325.022" y2="253.205"/>
<line display="none" opacity="0.25" fill="none" stroke="#262625" stroke-miterlimit="10" x1="110.022" y1="175.263" x2="289.167" y2="278.692"/>
<line display="none" opacity="0.25" fill="none" stroke="#262625" stroke-miterlimit="10" x1="85.022" y1="207.017" x2="294.859" y2="328.166"/>
<line display="none" opacity="0.25" fill="none" stroke="#262625" stroke-miterlimit="10" x1="105.022" y1="264.752" x2="285.478" y2="368.938"/>
<line display="none" opacity="0.25" fill="none" stroke="#262625" stroke-miterlimit="10" x1="0.25" y1="250.449" x2="265.022" y2="403.315"/>
<line display="none" opacity="0.25" fill="none" stroke="#262625" stroke-miterlimit="10" x1="595.022" y1="166.603" x2="945.478" y2="368.938"/>
<line display="none" opacity="0.25" fill="none" stroke="#262625" stroke-miterlimit="10" x1="640.022" y1="157.942" x2="1005.478" y2="368.938"/>
<line display="none" opacity="0.25" fill="none" stroke="#262625" stroke-miterlimit="10" x1="665.022" y1="126.188" x2="967.083" y2="300.582"/>
<line display="none" opacity="0.25" fill="none" stroke="#262625" stroke-miterlimit="10" x1="709.601" y1="105.737" x2="1013.23" y2="281.038"/>
<line display="none" opacity="0.25" fill="none" stroke="#262625" stroke-miterlimit="10" x1="736.409" y1="75.027" x2="1057.085" y2="260.169"/>
<line display="none" opacity="0.25" fill="none" stroke="#262625" stroke-miterlimit="10" x1="634.3" y1="166.185" x2="985.478" y2="368.938"/>
<line display="none" fill="none" stroke="#262625" stroke-miterlimit="10" x1="145.022" y1="254.034" x2="145.022" y2="334.034"/>
<line display="none" fill="none" stroke="#262625" stroke-miterlimit="10" x1="225.022" y1="207.846" x2="225.022" y2="287.846"/>
<line display="none" fill="none" stroke="#262625" stroke-miterlimit="10" x1="105.022" y1="138.563" x2="105.022" y2="219.393"/>
<line display="none" fill="none" stroke="#262625" stroke-miterlimit="10" x1="145.022" y1="161.658" x2="145.022" y2="205.04"/>
<line display="none" fill="none" stroke="#262625" stroke-miterlimit="10" x1="225.022" y1="115.47" x2="225.022" y2="195.47"/>
<line display="none" fill="none" stroke="#262625" stroke-miterlimit="10" x1="265.022" y1="138.563" x2="265.022" y2="219.393"/>
<line display="none" fill="none" stroke="#262625" stroke-miterlimit="10" x1="305.022" y1="161.658" x2="305.022" y2="241.657"/>
<line display="none" fill="none" stroke="#262625" stroke-miterlimit="10" x1="345.022" y1="92.376" x2="345.022" y2="134.88"/>
<line display="none" fill="none" stroke="#262625" stroke-miterlimit="10" x1="425.022" y1="92.376" x2="425.022" y2="172.376"/>
<line display="none" fill="none" stroke="#262625" stroke-miterlimit="10" x1="305.022" y1="69.282" x2="305.022" y2="111.764"/>
<line display="none" fill="none" stroke="#262625" stroke-miterlimit="10" x1="265.022" y1="92.376" x2="265.022" y2="134.88"/>
<line display="none" fill="none" stroke="#262625" stroke-miterlimit="10" x1="225.022" y1="69.282" x2="225.022" y2="111.764"/>
<line display="none" fill="none" stroke="#262625" stroke-miterlimit="10" x1="465.022" y1="23.094" x2="465.022" y2="103.094"/>
<line display="none" fill="none" stroke="#262625" stroke-miterlimit="10" x1="425.022" y1="46.188" x2="425.022" y2="86.016"/>
<line display="none" fill="none" stroke="#262625" stroke-miterlimit="10" x1="505.022" y1="184.752" x2="505.022" y2="263.44"/>
<line display="none" fill="none" stroke="#262625" stroke-miterlimit="10" x1="545.022" y1="207.846" x2="545.022" y2="287.846"/>
<line display="none" fill="none" stroke="#262625" stroke-miterlimit="10" x1="585.022" y1="184.752" x2="585.022" y2="224.096"/>
<line display="none" fill="none" stroke="#262625" stroke-miterlimit="10" x1="585.022" y1="230.939" x2="585.022" y2="310.809"/>
<line display="none" fill="none" stroke="#262625" stroke-miterlimit="10" x1="625.022" y1="254.034" x2="625.022" y2="334.034"/>
<line display="none" fill="none" stroke="#262625" stroke-miterlimit="10" x1="665.022" y1="230.939" x2="665.022" y2="310.809"/>
<line display="none" fill="none" stroke="#262625" stroke-miterlimit="10" x1="665.022" y1="184.752" x2="665.022" y2="226.978"/>
<line display="none" fill="none" stroke="#262625" stroke-miterlimit="10" x1="705.022" y1="161.658" x2="705.022" y2="204.424"/>
<line display="none" fill="none" stroke="#262625" stroke-miterlimit="10" x1="705.022" y1="207.846" x2="705.022" y2="287.846"/>
<line display="none" fill="none" stroke="#262625" stroke-miterlimit="10" x1="785.022" y1="254.034" x2="785.022" y2="334.034"/>
<line display="none" fill="none" stroke="#262625" stroke-miterlimit="10" x1="825.022" y1="230.939" x2="825.022" y2="311.393"/>
<line display="none" fill="none" stroke="#262625" stroke-miterlimit="10" x1="825.807" y1="184.752" x2="825.807" y2="224.096"/>
<line display="none" fill="none" stroke="#262625" stroke-miterlimit="10" x1="865.807" y1="207.846" x2="865.807" y2="287.393"/>
<line display="none" fill="none" stroke="#262625" stroke-miterlimit="10" x1="905.807" y1="184.752" x2="905.807" y2="263.44"/>
<line display="none" fill="none" stroke="#262625" stroke-miterlimit="10" x1="945.478" y1="161.658" x2="945.478" y2="241.657"/>
<line display="none" fill="none" stroke="#262625" stroke-miterlimit="10" x1="985.478" y1="138.563" x2="985.478" y2="218.695"/>
<line display="none" fill="none" stroke="#262625" stroke-miterlimit="10" x1="865.478" y1="115.47" x2="865.478" y2="155.47"/>
<line display="none" fill="none" stroke="#262625" stroke-miterlimit="10" x1="745.022" y1="46.188" x2="745.022" y2="127.017"/>
<line display="none" fill="none" stroke="#262625" stroke-miterlimit="10" x1="785.022" y1="69.282" x2="785.022" y2="149.282"/>
<line display="none" fill="none" stroke="#262625" stroke-miterlimit="10" x1="825.022" y1="46.188" x2="825.022" y2="126.188"/>
<line display="none" fill="none" stroke="#262625" stroke-miterlimit="10" x1="425.022" y1="126.188" x2="465.022" y2="103.094"/>
<line display="none" fill="none" stroke="#262625" stroke-miterlimit="10" x1="665.022" y1="264.752" x2="705.022" y2="241.657"/>
<polyline display="none" fill="none" stroke="#262625" stroke-miterlimit="10" points="905.017,218.298 945.478,241.657 
	985.478,218.563 "/>
<polyline display="none" fill="none" stroke="#262625" stroke-miterlimit="10" points="705.022,287.846 785.022,334.034 
	825.022,310.939 "/>
<polyline display="none" fill="none" stroke="#262625" stroke-miterlimit="10" points="265.022,218.563 305.022,241.657 
	345.022,218.563 "/>
<polyline display="none" fill="none" stroke="#262625" stroke-miterlimit="10" points="585.022,310.939 625.022,334.034 
	665.022,310.939 "/>
<polyline display="none" fill="none" stroke="#262625" stroke-miterlimit="10" points="825.807,264.752 865.807,287.846 
	905.807,264.752 "/>
<polyline display="none" fill="none" stroke="#262625" stroke-miterlimit="10" points="745.022,126.188 785.022,149.282 
	825.022,126.188 "/>
<polyline display="none" fill="none" stroke="#262625" stroke-miterlimit="10" points="345.022,172.376 385.022,195.47 
	425.022,172.376 "/>
<polyline display="none" fill="none" stroke="#262625" stroke-miterlimit="10" points="505.022,264.752 545.022,287.846 
	585.022,264.752 "/>
<line display="none" fill="none" stroke="#262625" stroke-miterlimit="10" x1="214.305" y1="201.657" x2="225.022" y2="195.47"/>
<line display="none" fill="none" stroke="#262625" stroke-miterlimit="10" x1="105.022" y1="218.563" x2="114.917" y2="224.276"/>
<polyline display="none" fill="none" stroke="#262625" stroke-miterlimit="10" points="105.022,310.939 145.022,334.034 
	225.022,287.846 "/>
<line display="none" fill="none" stroke="#262625" stroke-miterlimit="10" x1="345.022" y1="0" x2="345.022" y2="80"/>
<line display="none" fill="none" stroke="#262625" stroke-miterlimit="10" x1="385.022" y1="115.47" x2="385.022" y2="195.47"/>
<line display="none" fill="none" stroke="#262625" stroke-miterlimit="10" x1="585.022" y1="138.563" x2="585.022" y2="178.149"/>
<line display="none" fill="none" stroke="#262625" stroke-miterlimit="10" x1="345.022" y1="80" x2="355.444" y2="86.017"/>
<line display="none" fill="none" stroke="#262625" stroke-miterlimit="10" x1="225.022" y1="149.282" x2="265.022" y2="172.376"/>
<line display="none" fill="none" stroke="#262625" stroke-miterlimit="10" x1="345.022" y1="138.563" x2="345.022" y2="218.563"/>
<line display="none" fill="none" stroke="#262625" stroke-miterlimit="10" x1="585.022" y1="218.563" x2="594.918" y2="224.276"/>
<line display="none" fill="none" stroke="#262625" stroke-miterlimit="10" x1="105.022" y1="230.939" x2="105.022" y2="310.939"/>
<polygon fill="none" stroke="#262625" stroke-width="2" stroke-miterlimit="10" points="345.022,33 425.022,79.188 465.022,56.094 
	385.022,9.906 "/>
<polygon fill="none" stroke="#262625" stroke-width="2" stroke-miterlimit="10" points="585.022,171.563 665.022,217.752 
	705.022,194.657 625.022,148.47 "/>
<polygon fill="none" stroke="#262625" stroke-width="2" stroke-miterlimit="10" points="865.478,148.47 945.478,194.657 
	985.478,171.563 905.478,125.376 "/>
<polygon fill="none" stroke="#262625" stroke-width="2" stroke-miterlimit="10" points="705.022,240.846 785.022,287.034 
	825.022,263.939 745.022,217.752 "/>
<polygon fill="none" stroke="#262625" stroke-width="2" stroke-miterlimit="10" points="265.022,171.563 305.022,194.657 
	345.022,171.563 305.022,148.47 "/>
<polygon fill="none" stroke="#262625" stroke-width="2" stroke-miterlimit="10" points="585.022,263.939 625.022,287.034 
	665.022,263.939 625.022,240.846 "/>
<polygon fill="none" stroke="#262625" stroke-width="2" stroke-miterlimit="10" points="825.807,217.752 865.807,240.846 
	905.807,217.752 865.807,194.657 "/>
<polygon fill="none" stroke="#262625" stroke-width="2" stroke-miterlimit="10" points="745.022,79.188 785.022,102.282 
	825.022,79.188 785.022,56.094 "/>
<polygon fill="none" stroke="#262625" stroke-width="2" stroke-miterlimit="10" points="225.022,102.282 265.022,125.376 
	305.022,102.282 265.022,79.188 "/>
<polygon fill="none" stroke="#262625" stroke-width="2" stroke-miterlimit="10" points="345.022,125.376 385.022,148.47 
	425.022,125.376 385.022,102.282 "/>
<polygon fill="none" stroke="#262625" stroke-width="2" stroke-miterlimit="10" points="505.022,217.752 545.022,240.846 
	585.022,217.752 545.022,194.657 "/>
<polygon fill="none" stroke="#262625" stroke-width="2" stroke-miterlimit="10" points="145.022,194.657 225.022,148.47 
	185.022,125.376 105.022,171.563 "/>
<polygon fill="none" stroke="#262625" stroke-width="2" stroke-miterlimit="10" points="145.022,287.034 225.022,240.846 
	185.022,217.752 105.022,263.939 "/>
</svg>
