<?xml version="1.0" encoding="utf-8"?>
<!-- Generator: Adobe Illustrator 15.0.0, SVG Export Plug-In  -->
<!DOCTYPE svg PUBLIC "-//W3C//DTD SVG 1.1//EN" "http://www.w3.org/Graphics/SVG/1.1/DTD/svg11.dtd" [
	<!ENTITY ns_flows "http://ns.adobe.com/Flows/1.0/">
]>
<svg version="1.1"
	 xmlns="http://www.w3.org/2000/svg" xmlns:xlink="http://www.w3.org/1999/xlink" xmlns:a="http://ns.adobe.com/AdobeSVGViewerExtensions/3.0/"
	 x="0px" y="0px" width="1122px" height="468px" viewBox="-17.978 -20.582 1122 468"
	 enable-background="new -17.978 -20.582 1122 468" xml:space="preserve">
<defs>
</defs>
<line opacity="0.25" fill="none" stroke="#262625" stroke-miterlimit="10" x1="105.022" y1="289.001" x2="442.2" y2="94.331"/>
<line opacity="0.25" fill="none" stroke="#262625" stroke-miterlimit="10" x1="25.022" y1="289.001" x2="425.022" y2="58.061"/>
<line opacity="0.25" fill="none" stroke="#262625" stroke-miterlimit="10" x1="65.022" y1="358.283" x2="485.022" y2="115.796"/>
<line opacity="0.25" fill="none" stroke="#262625" stroke-miterlimit="10" x1="145.022" y1="358.283" x2="526.252" y2="138.18"/>
<line opacity="0.25" fill="none" stroke="#262625" stroke-miterlimit="10" x1="124.072" y1="416.566" x2="673.636" y2="99.276"/>
<line opacity="0.25" fill="none" stroke="#262625" stroke-miterlimit="10" x1="89.862" y1="424.771" x2="598.484" y2="131.117"/>
<line opacity="0.25" fill="none" stroke="#262625" stroke-miterlimit="10" x1="202.962" y1="382.566" x2="693.636" y2="99.276"/>
<line opacity="0.25" fill="none" stroke="#262625" stroke-miterlimit="10" x1="209.375" y1="436.6" x2="847.083" y2="68.418"/>
<line opacity="0.25" fill="none" stroke="#262625" stroke-miterlimit="10" x1="445.022" y1="312.095" x2="835.022" y2="86.928"/>
<line opacity="0.25" fill="none" stroke="#262625" stroke-miterlimit="10" x1="248.171" y1="437.294" x2="855.022" y2="86.928"/>
<line opacity="0.25" fill="none" stroke="#262625" stroke-miterlimit="10" x1="376.731" y1="409.258" x2="967.083" y2="68.418"/>
<line opacity="0.25" fill="none" stroke="#262625" stroke-miterlimit="10" x1="456.731" y1="409.258" x2="945.022" y2="127.343"/>
<line opacity="0.25" fill="none" stroke="#262625" stroke-miterlimit="10" x1="536.731" y1="409.258" x2="985.022" y2="150.437"/>
<line opacity="0.25" fill="none" stroke="#262625" stroke-miterlimit="10" x1="659.103" y1="384.795" x2="1025.022" y2="173.531"/>
<line opacity="0.25" fill="none" stroke="#262625" stroke-miterlimit="10" x1="732.022" y1="388.883" x2="1065.022" y2="196.625"/>
<line opacity="0.25" fill="none" stroke="#262625" stroke-miterlimit="10" x1="776.731" y1="409.258" x2="1085.022" y2="231.266"/>
<line opacity="0.25" fill="none" stroke="#262625" stroke-miterlimit="10" x1="343.122" y1="56.963" x2="925.478" y2="393.187"/>
<line opacity="0.25" fill="none" stroke="#262625" stroke-miterlimit="10" x1="325.022" y1="92.702" x2="845.478" y2="393.187"/>
<line opacity="0.25" fill="none" stroke="#262625" stroke-miterlimit="10" x1="275.443" y1="110.265" x2="765.478" y2="393.187"/>
<line opacity="0.25" fill="none" stroke="#262625" stroke-miterlimit="10" x1="231.56" y1="131.117" x2="685.478" y2="393.187"/>
<line opacity="0.25" fill="none" stroke="#262625" stroke-miterlimit="10" x1="195.022" y1="156.21" x2="605.478" y2="393.187"/>
<line opacity="0.25" fill="none" stroke="#262625" stroke-miterlimit="10" x1="158.176" y1="181.125" x2="325.022" y2="277.454"/>
<line opacity="0.25" fill="none" stroke="#262625" stroke-miterlimit="10" x1="110.022" y1="199.512" x2="289.167" y2="302.941"/>
<line opacity="0.25" fill="none" stroke="#262625" stroke-miterlimit="10" x1="85.022" y1="231.266" x2="294.859" y2="352.415"/>
<line opacity="0.25" fill="none" stroke="#262625" stroke-miterlimit="10" x1="105.022" y1="289.001" x2="285.478" y2="393.187"/>
<line opacity="0.25" fill="none" stroke="#262625" stroke-miterlimit="10" x1="0.25" y1="274.698" x2="265.022" y2="427.564"/>
<line opacity="0.25" fill="none" stroke="#262625" stroke-miterlimit="10" x1="595.022" y1="190.852" x2="945.478" y2="393.187"/>
<line opacity="0.25" fill="none" stroke="#262625" stroke-miterlimit="10" x1="640.022" y1="182.191" x2="1005.478" y2="393.187"/>
<line opacity="0.25" fill="none" stroke="#262625" stroke-miterlimit="10" x1="665.022" y1="150.437" x2="967.083" y2="324.831"/>
<line opacity="0.25" fill="none" stroke="#262625" stroke-miterlimit="10" x1="709.601" y1="129.986" x2="1013.23" y2="305.287"/>
<line opacity="0.25" fill="none" stroke="#262625" stroke-miterlimit="10" x1="736.409" y1="99.276" x2="1057.085" y2="284.418"/>
<line opacity="0.25" fill="none" stroke="#262625" stroke-miterlimit="10" x1="634.3" y1="190.434" x2="985.478" y2="393.187"/>
<line display="none" fill="none" stroke="#262625" stroke-miterlimit="10" x1="145.022" y1="278.283" x2="145.022" y2="358.283"/>
<line display="none" fill="none" stroke="#262625" stroke-miterlimit="10" x1="225.022" y1="232.095" x2="225.022" y2="312.095"/>
<line display="none" fill="none" stroke="#262625" stroke-miterlimit="10" x1="105.022" y1="162.813" x2="105.022" y2="243.642"/>
<line display="none" fill="none" stroke="#262625" stroke-miterlimit="10" x1="145.022" y1="185.907" x2="145.022" y2="229.289"/>
<line display="none" fill="none" stroke="#262625" stroke-miterlimit="10" x1="225.022" y1="139.719" x2="225.022" y2="219.719"/>
<line display="none" fill="none" stroke="#262625" stroke-miterlimit="10" x1="265.022" y1="162.813" x2="265.022" y2="243.642"/>
<line display="none" fill="none" stroke="#262625" stroke-miterlimit="10" x1="305.022" y1="185.907" x2="305.022" y2="265.906"/>
<line display="none" fill="none" stroke="#262625" stroke-miterlimit="10" x1="345.022" y1="116.625" x2="345.022" y2="159.129"/>
<line display="none" fill="none" stroke="#262625" stroke-miterlimit="10" x1="425.022" y1="116.625" x2="425.022" y2="196.625"/>
<line display="none" fill="none" stroke="#262625" stroke-miterlimit="10" x1="305.022" y1="93.531" x2="305.022" y2="136.013"/>
<line display="none" fill="none" stroke="#262625" stroke-miterlimit="10" x1="265.022" y1="116.625" x2="265.022" y2="159.129"/>
<line display="none" fill="none" stroke="#262625" stroke-miterlimit="10" x1="225.022" y1="93.531" x2="225.022" y2="136.013"/>
<line display="none" fill="none" stroke="#262625" stroke-miterlimit="10" x1="465.022" y1="47.343" x2="465.022" y2="127.343"/>
<line display="none" fill="none" stroke="#262625" stroke-miterlimit="10" x1="425.022" y1="70.437" x2="425.022" y2="110.265"/>
<line display="none" fill="none" stroke="#262625" stroke-miterlimit="10" x1="505.022" y1="209.001" x2="505.022" y2="287.689"/>
<line display="none" fill="none" stroke="#262625" stroke-miterlimit="10" x1="545.022" y1="232.095" x2="545.022" y2="312.095"/>
<line display="none" fill="none" stroke="#262625" stroke-miterlimit="10" x1="585.022" y1="209.001" x2="585.022" y2="248.345"/>
<line display="none" fill="none" stroke="#262625" stroke-miterlimit="10" x1="585.022" y1="255.188" x2="585.022" y2="335.058"/>
<line display="none" fill="none" stroke="#262625" stroke-miterlimit="10" x1="625.022" y1="278.283" x2="625.022" y2="358.283"/>
<line display="none" fill="none" stroke="#262625" stroke-miterlimit="10" x1="665.022" y1="255.188" x2="665.022" y2="335.058"/>
<line display="none" fill="none" stroke="#262625" stroke-miterlimit="10" x1="665.022" y1="209.001" x2="665.022" y2="251.227"/>
<line display="none" fill="none" stroke="#262625" stroke-miterlimit="10" x1="705.022" y1="185.907" x2="705.022" y2="228.673"/>
<line display="none" fill="none" stroke="#262625" stroke-miterlimit="10" x1="705.022" y1="232.095" x2="705.022" y2="312.095"/>
<line display="none" fill="none" stroke="#262625" stroke-miterlimit="10" x1="785.022" y1="278.283" x2="785.022" y2="358.283"/>
<line display="none" fill="none" stroke="#262625" stroke-miterlimit="10" x1="825.022" y1="255.188" x2="825.022" y2="335.642"/>
<line display="none" fill="none" stroke="#262625" stroke-miterlimit="10" x1="825.807" y1="209.001" x2="825.807" y2="248.345"/>
<line display="none" fill="none" stroke="#262625" stroke-miterlimit="10" x1="865.807" y1="232.095" x2="865.807" y2="311.642"/>
<line display="none" fill="none" stroke="#262625" stroke-miterlimit="10" x1="905.807" y1="209.001" x2="905.807" y2="287.689"/>
<line display="none" fill="none" stroke="#262625" stroke-miterlimit="10" x1="945.478" y1="185.907" x2="945.478" y2="265.906"/>
<line display="none" fill="none" stroke="#262625" stroke-miterlimit="10" x1="985.478" y1="162.813" x2="985.478" y2="242.944"/>
<line display="none" fill="none" stroke="#262625" stroke-miterlimit="10" x1="865.478" y1="139.719" x2="865.478" y2="179.719"/>
<line display="none" fill="none" stroke="#262625" stroke-miterlimit="10" x1="745.022" y1="70.437" x2="745.022" y2="151.266"/>
<line display="none" fill="none" stroke="#262625" stroke-miterlimit="10" x1="785.022" y1="93.531" x2="785.022" y2="173.531"/>
<line display="none" fill="none" stroke="#262625" stroke-miterlimit="10" x1="825.022" y1="70.437" x2="825.022" y2="150.437"/>
<line display="none" fill="none" stroke="#262625" stroke-miterlimit="10" x1="425.022" y1="150.437" x2="465.022" y2="127.343"/>
<line display="none" fill="none" stroke="#262625" stroke-miterlimit="10" x1="665.022" y1="289.001" x2="705.022" y2="265.906"/>
<polyline display="none" fill="none" stroke="#262625" stroke-miterlimit="10" points="905.017,242.547 945.478,265.906 
	985.478,242.813 "/>
<polyline display="none" fill="none" stroke="#262625" stroke-miterlimit="10" points="705.022,312.095 785.022,358.283 
	825.022,335.188 "/>
<polyline display="none" fill="none" stroke="#262625" stroke-miterlimit="10" points="265.022,242.813 305.022,265.906 
	345.022,242.813 "/>
<polyline display="none" fill="none" stroke="#262625" stroke-miterlimit="10" points="585.022,335.188 625.022,358.283 
	665.022,335.188 "/>
<polyline display="none" fill="none" stroke="#262625" stroke-miterlimit="10" points="825.807,289.001 865.807,312.095 
	905.807,289.001 "/>
<polyline display="none" fill="none" stroke="#262625" stroke-miterlimit="10" points="745.022,150.437 785.022,173.531 
	825.022,150.437 "/>
<polyline display="none" fill="none" stroke="#262625" stroke-miterlimit="10" points="345.022,196.625 385.022,219.719 
	425.022,196.625 "/>
<polyline display="none" fill="none" stroke="#262625" stroke-miterlimit="10" points="505.022,289.001 545.022,312.095 
	585.022,289.001 "/>
<line display="none" fill="none" stroke="#262625" stroke-miterlimit="10" x1="214.305" y1="225.906" x2="225.022" y2="219.719"/>
<line display="none" fill="none" stroke="#262625" stroke-miterlimit="10" x1="105.022" y1="242.813" x2="114.917" y2="248.525"/>
<polyline display="none" fill="none" stroke="#262625" stroke-miterlimit="10" points="105.022,335.188 145.022,358.283 
	225.022,312.095 "/>
<line display="none" fill="none" stroke="#262625" stroke-miterlimit="10" x1="345.022" y1="24.249" x2="345.022" y2="104.249"/>
<line display="none" fill="none" stroke="#262625" stroke-miterlimit="10" x1="385.022" y1="139.719" x2="385.022" y2="219.719"/>
<line display="none" fill="none" stroke="#262625" stroke-miterlimit="10" x1="585.022" y1="162.813" x2="585.022" y2="202.398"/>
<line display="none" fill="none" stroke="#262625" stroke-miterlimit="10" x1="345.022" y1="104.249" x2="355.444" y2="110.266"/>
<line display="none" fill="none" stroke="#262625" stroke-miterlimit="10" x1="225.022" y1="173.531" x2="265.022" y2="196.625"/>
<line display="none" fill="none" stroke="#262625" stroke-miterlimit="10" x1="345.022" y1="162.813" x2="345.022" y2="242.813"/>
<line display="none" fill="none" stroke="#262625" stroke-miterlimit="10" x1="585.022" y1="242.813" x2="594.918" y2="248.525"/>
<line display="none" fill="none" stroke="#262625" stroke-miterlimit="10" x1="105.022" y1="255.188" x2="105.022" y2="335.188"/>
<polygon display="none" fill="none" stroke="#262625" stroke-width="2" stroke-miterlimit="10" points="345.022,24.249 
	425.022,70.437 465.022,47.343 385.022,1.155 "/>
<polygon display="none" fill="none" stroke="#262625" stroke-width="2" stroke-miterlimit="10" points="585.022,162.813 
	665.022,209.001 705.022,185.907 625.022,139.719 "/>
<polygon display="none" fill="none" stroke="#262625" stroke-width="2" stroke-miterlimit="10" points="865.478,139.719 
	945.478,185.907 985.478,162.813 905.478,116.625 "/>
<polygon display="none" fill="none" stroke="#262625" stroke-width="2" stroke-miterlimit="10" points="705.022,232.095 
	785.022,278.283 825.022,255.188 745.022,209.001 "/>
<polygon display="none" fill="none" stroke="#262625" stroke-width="2" stroke-miterlimit="10" points="265.022,162.813 
	305.022,185.907 345.022,162.813 305.022,139.719 "/>
<polygon display="none" fill="none" stroke="#262625" stroke-width="2" stroke-miterlimit="10" points="585.022,255.188 
	625.022,278.283 665.022,255.188 625.022,232.095 "/>
<polygon display="none" fill="none" stroke="#262625" stroke-width="2" stroke-miterlimit="10" points="825.807,209.001 
	865.807,232.095 905.807,209.001 865.807,185.907 "/>
<polygon display="none" fill="none" stroke="#262625" stroke-width="2" stroke-miterlimit="10" points="745.022,70.437 
	785.022,93.531 825.022,70.437 785.022,47.343 "/>
<polygon display="none" fill="none" stroke="#262625" stroke-width="2" stroke-miterlimit="10" points="225.022,93.531 
	265.022,116.625 305.022,93.531 265.022,70.437 "/>
<polygon display="none" fill="none" stroke="#262625" stroke-width="2" stroke-miterlimit="10" points="345.022,116.625 
	385.022,139.719 425.022,116.625 385.022,93.531 "/>
<polygon display="none" fill="none" stroke="#262625" stroke-width="2" stroke-miterlimit="10" points="505.022,209.001 
	545.022,232.095 585.022,209.001 545.022,185.907 "/>
<polygon display="none" fill="none" stroke="#262625" stroke-width="2" stroke-miterlimit="10" points="145.022,185.907 
	225.022,139.719 185.022,116.625 105.022,162.813 "/>
<polygon display="none" fill="none" stroke="#262625" stroke-width="2" stroke-miterlimit="10" points="145.022,278.283 
	225.022,232.095 185.022,209.001 105.022,255.188 "/>
</svg>
