<?xml version="1.0" encoding="utf-8"?>
<!-- Generator: Adobe Illustrator 15.0.0, SVG Export Plug-In  -->
<!DOCTYPE svg PUBLIC "-//W3C//DTD SVG 1.1//EN" "http://www.w3.org/Graphics/SVG/1.1/DTD/svg11.dtd" [
	<!ENTITY ns_flows "http://ns.adobe.com/Flows/1.0/">
]>
<svg version="1.1"
	 xmlns="http://www.w3.org/2000/svg" xmlns:xlink="http://www.w3.org/1999/xlink" xmlns:a="http://ns.adobe.com/AdobeSVGViewerExtensions/3.0/"
	 x="0px" y="0px" width="423px" height="711px" viewBox="-28.935 -171 423 711" enable-background="new -28.935 -171 423 711"
	 xml:space="preserve">
<defs>
</defs>

<g>
	<g>
		
			<line fill="none" stroke="#262625" stroke-linecap="round" stroke-linejoin="round" x1="224.991" y1="283.479" x2="329.051" y2="343.558"/>
		<g>
			<polygon fill="#262625" points="324.137,345.442 323.912,344.467 328.718,343.366 327.269,338.652 328.226,338.359 
				329.99,344.101 			"/>
		</g>
	</g>
</g>
<line fill="none" stroke="#262625" stroke-linecap="round" stroke-linejoin="round" stroke-miterlimit="10" x1="111.245" y1="217.808" x2="119.989" y2="222.855"/>
<g>
	<g>
		
			<line fill="none" stroke="#262625" stroke-linecap="round" stroke-linejoin="round" x1="0.939" y1="154.123" x2="49.984" y2="182.438"/>
		<g>
			<polygon fill="#262625" points="1.764,159.321 2.721,159.028 1.271,154.315 6.078,153.214 5.854,152.238 0,153.582 			"/>
		</g>
	</g>
</g>
<g>
	<g>
		
			<line fill="none" stroke="#262625" stroke-linecap="round" stroke-linejoin="round" x1="0.939" y1="133.915" x2="49.984" y2="162.231"/>
		<g>
			<polygon fill="#262625" points="1.764,139.114 2.721,138.821 1.271,134.108 6.078,133.006 5.854,132.031 0,133.374 			"/>
		</g>
	</g>
</g>
<g>
	<g>
		
			<line fill="none" stroke="#262625" stroke-linecap="round" stroke-linejoin="round" x1="119.979" y1="283.484" x2="15.929" y2="343.558"/>
		<g>
			<polygon fill="#262625" points="16.753,338.358 17.71,338.652 16.261,343.364 21.067,344.467 20.843,345.441 14.989,344.099 			
				"/>
		</g>
	</g>
</g>
<line fill="none" stroke="#262625" stroke-linecap="round" stroke-linejoin="round" stroke-miterlimit="10" x1="233.734" y1="217.808" x2="224.983" y2="222.86"/>
<g>
	<g>
		
			<line fill="none" stroke="#262625" stroke-linecap="round" stroke-linejoin="round" x1="344.039" y1="154.123" x2="295.003" y2="182.434"/>
		<g>
			<polygon fill="#262625" points="339.125,152.238 338.9,153.213 343.706,154.314 342.257,159.027 343.214,159.321 344.979,153.58 
							"/>
		</g>
	</g>
</g>
<g>
	<g>
		
			<line fill="none" stroke="#262625" stroke-linecap="round" stroke-linejoin="round" x1="119.98" y1="264.179" x2="16.359" y2="324.005"/>
		<g>
			<polygon fill="#262625" points="17.184,318.806 18.141,319.1 16.691,323.812 21.498,324.914 21.273,325.889 15.419,324.546 			
				"/>
		</g>
	</g>
</g>
<line fill="none" stroke="#262625" stroke-linecap="round" stroke-linejoin="round" stroke-miterlimit="10" x1="233.74" y1="198.5" x2="224.989" y2="203.552"/>
<g>
	<g>
		
			<line fill="none" stroke="#262625" stroke-linecap="round" stroke-linejoin="round" x1="344.47" y1="134.569" x2="294.707" y2="163.3"/>
		<g>
			<polygon fill="#262625" points="339.556,132.685 339.331,133.66 344.137,134.761 342.688,139.474 343.645,139.768 
				345.408,134.026 			"/>
		</g>
	</g>
</g>
<g>
	<g>
		
			<line fill="none" stroke="#262625" stroke-linecap="round" stroke-linejoin="round" x1="189.99" y1="140.032" x2="189.99" y2="1.084"/>
		<g>
			<polygon fill="#262625" points="194.08,4.398 193.348,5.08 189.991,1.468 186.634,5.08 185.901,4.398 189.991,0 			"/>
		</g>
	</g>
</g>
<g>
	<g>
		
			<line fill="none" stroke="#262625" stroke-linecap="round" stroke-linejoin="round" x1="154.991" y1="162.239" x2="154.991" y2="42.08"/>
		<g>
			<polygon fill="#262625" points="159.081,45.394 158.348,46.076 154.992,42.464 151.634,46.076 150.902,45.394 154.992,40.996 			
				"/>
		</g>
	</g>
</g>
<g>
	<g>
		
			<line fill="none" stroke="#262625" stroke-linecap="round" stroke-linejoin="round" x1="224.989" y1="263.271" x2="329.051" y2="323.351"/>
		<g>
			<polygon fill="#262625" points="324.137,325.235 323.912,324.26 328.718,323.159 327.269,318.445 328.226,318.152 
				329.99,323.894 			"/>
		</g>
	</g>
</g>
<line fill="none" stroke="#262625" stroke-linecap="round" stroke-linejoin="round" stroke-miterlimit="10" x1="111.238" y1="197.596" x2="119.98" y2="202.644"/>
</svg>
