<?xml version="1.0" encoding="utf-8"?>
<!-- Generator: Adobe Illustrator 15.0.0, SVG Export Plug-In  -->
<!DOCTYPE svg PUBLIC "-//W3C//DTD SVG 1.1//EN" "http://www.w3.org/Graphics/SVG/1.1/DTD/svg11.dtd" [
	<!ENTITY ns_flows "http://ns.adobe.com/Flows/1.0/">
]>
<svg version="1.1"
	 xmlns="http://www.w3.org/2000/svg" xmlns:xlink="http://www.w3.org/1999/xlink" xmlns:a="http://ns.adobe.com/AdobeSVGViewerExtensions/3.0/"
	 x="0px" y="0px" width="423px" height="711px" viewBox="-28.935 -171 423 711" enable-background="new -28.935 -171 423 711"
	 xml:space="preserve">
<defs>
</defs>

<polygon fill="none" stroke-width="2" stroke="#262625" stroke-miterlimit="12" points="154.99,61.203 172.49,71.307 189.99,61.203 224.99,81.41 
	198.74,96.566 172.49,81.41 146.24,96.566 119.99,81.41 "/>
<polygon fill="none"  stroke-width="2" stroke="#262625" stroke-miterlimit="12" points="224.99,182.464 189.99,202.671 172.49,192.568 
	154.99,202.671 119.99,182.464 146.225,167.3 172.49,182.464 198.755,167.3 "/>
<polygon fill="none" stroke-width="2" stroke="#262625" stroke-miterlimit="12" points="84.99,162.239 111.24,147.083 84.99,131.928 111.24,116.773 
	84.99,101.618 49.99,121.825 67.49,131.928 49.99,142.032 "/>
<polygon fill="none" stroke-width="2" stroke="#262625" stroke-miterlimit="12" points="259.99,162.239 233.74,147.083 259.99,131.928 
	233.74,116.773 259.99,101.618 294.99,121.825 277.49,131.928 294.99,142.032 "/>

</svg>
