<?xml version="1.0" encoding="utf-8"?>
<!-- Generator: Adobe Illustrator 15.0.0, SVG Export Plug-In  -->
<!DOCTYPE svg PUBLIC "-//W3C//DTD SVG 1.1//EN" "http://www.w3.org/Graphics/SVG/1.1/DTD/svg11.dtd" [
	<!ENTITY ns_flows "http://ns.adobe.com/Flows/1.0/">
]>
<svg version="1.1"
	 xmlns="http://www.w3.org/2000/svg" xmlns:xlink="http://www.w3.org/1999/xlink" xmlns:a="http://ns.adobe.com/AdobeSVGViewerExtensions/3.0/"
	 x="0px" y="0px" width="423px" height="711px" viewBox="-28.935 -171 423 711" enable-background="new -28.935 -171 423 711"
	 xml:space="preserve">
<defs>
</defs>
<polygon display="none" fill="none" stroke="#262625" stroke-linecap="round" stroke-linejoin="round" stroke-miterlimit="10" points="
	224.99,182.464 189.99,202.671 172.49,192.568 154.99,202.671 119.99,182.464 146.225,167.3 172.49,182.464 198.755,167.3 "/>
<polyline display="none" fill="none" stroke="#262625" stroke-width="0.9406" stroke-linecap="round" stroke-linejoin="round" stroke-miterlimit="10" points="
	224.99,404.727 189.99,424.934 172.49,414.83 154.99,424.934 119.99,404.727 "/>
<line display="none" fill="none" stroke="#262625" stroke-linecap="round" stroke-linejoin="round" stroke-miterlimit="10" x1="224.99" y1="182.464" x2="224.99" y2="404.727"/>
<line display="none" fill="none" stroke="#262625" stroke-linecap="round" stroke-linejoin="round" stroke-miterlimit="10" x1="189.99" y1="202.671" x2="189.99" y2="424.934"/>
<line display="none" fill="none" stroke="#262625" stroke-linecap="round" stroke-linejoin="round" stroke-miterlimit="10" x1="172.49" y1="192.568" x2="172.49" y2="414.83"/>
<line display="none" fill="none" stroke="#262625" stroke-linecap="round" stroke-linejoin="round" stroke-miterlimit="10" x1="154.99" y1="202.671" x2="154.99" y2="424.934"/>
<line display="none" fill="none" stroke="#262625" stroke-linecap="round" stroke-linejoin="round" stroke-miterlimit="10" x1="119.99" y1="182.464" x2="119.99" y2="404.727"/>
<polyline display="none" fill="none" stroke="#262625" stroke-width="0.9406" stroke-linecap="round" stroke-linejoin="round" stroke-miterlimit="10" points="
	294.99,364.312 259.99,384.52 233.74,369.363 "/>
<polyline display="none" fill="none" stroke="#262625" stroke-width="0.9406" stroke-linecap="round" stroke-linejoin="round" stroke-miterlimit="10" points="
	294.99,142.032 259.99,162.239 233.74,147.083 "/>
<polyline display="none" fill="none" stroke="#262625" stroke-width="0.9406" stroke-linecap="round" stroke-linejoin="round" stroke-miterlimit="10" points="
	233.74,369.363 233.74,147.083 259.99,131.928 233.74,116.773 259.99,101.618 294.99,121.825 277.49,131.928 294.99,142.032 
	294.99,364.312 "/>
<line display="none" fill="none" stroke="#262625" stroke-width="0.9406" stroke-linecap="round" stroke-linejoin="round" stroke-miterlimit="10" x1="259.99" y1="162.239" x2="259.99" y2="384.52"/>
<line display="none" fill="none" stroke="#262625" stroke-width="0.9406" stroke-linecap="round" stroke-linejoin="round" stroke-miterlimit="10" x1="233.74" y1="116.773" x2="233.74" y2="145.083"/>
<line display="none" fill="none" stroke="#262625" stroke-width="0.9406" stroke-linecap="round" stroke-linejoin="round" stroke-miterlimit="10" x1="294.99" y1="121.825" x2="294.99" y2="140.032"/>
<polyline display="none" fill="none" stroke="#262625" stroke-width="0.9406" stroke-linecap="round" stroke-linejoin="round" stroke-miterlimit="10" points="
	49.99,364.312 84.99,384.52 111.24,369.363 "/>
<polyline display="none" fill="none" stroke="#262625" stroke-width="0.9406" stroke-linecap="round" stroke-linejoin="round" stroke-miterlimit="10" points="
	49.99,142.032 84.99,162.239 111.24,147.083 "/>
<polyline display="none" fill="none" stroke="#262625" stroke-width="0.9406" stroke-linecap="round" stroke-linejoin="round" stroke-miterlimit="10" points="
	111.24,369.363 111.24,147.083 84.99,131.928 111.24,116.773 84.99,101.618 49.99,121.825 67.49,131.928 49.99,142.032 
	49.99,364.312 "/>
<line display="none" fill="none" stroke="#262625" stroke-width="0.9406" stroke-linecap="round" stroke-linejoin="round" stroke-miterlimit="10" x1="84.99" y1="162.239" x2="84.99" y2="384.52"/>
<line display="none" fill="none" stroke="#262625" stroke-width="0.9406" stroke-linecap="round" stroke-linejoin="round" stroke-miterlimit="10" x1="111.24" y1="116.773" x2="111.24" y2="145.083"/>
<line display="none" fill="none" stroke="#262625" stroke-width="0.9406" stroke-linecap="round" stroke-linejoin="round" stroke-miterlimit="10" x1="49.99" y1="121.825" x2="49.99" y2="140.032"/>
<polygon display="none" fill="none" stroke="#262625" stroke-width="0.9406" stroke-linecap="round" stroke-linejoin="round" stroke-miterlimit="10" points="
	154.99,61.203 172.49,71.307 189.99,61.203 224.99,81.41 198.74,96.566 172.49,81.41 146.24,96.566 119.99,81.41 "/>
<line display="none" fill="none" stroke="#262625" stroke-width="0.9406" stroke-linecap="round" stroke-linejoin="round" stroke-miterlimit="10" x1="224.99" y1="81.41" x2="224.99" y2="178.464"/>
<line display="none" fill="none" stroke="#262625" stroke-width="0.9406" stroke-linecap="round" stroke-linejoin="round" stroke-miterlimit="10" x1="172.49" y1="81.41" x2="172.49" y2="178.464"/>
<line display="none" fill="none" stroke="#262625" stroke-width="0.9406" stroke-linecap="round" stroke-linejoin="round" stroke-miterlimit="10" x1="146.24" y1="96.566" x2="146.24" y2="163.3"/>
<line display="none" fill="none" stroke="#262625" stroke-width="0.9406" stroke-linecap="round" stroke-linejoin="round" stroke-miterlimit="10" x1="119.99" y1="81.41" x2="119.99" y2="178.464"/>
<line display="none" fill="none" stroke="#262625" stroke-width="0.9406" stroke-linecap="round" stroke-linejoin="round" stroke-miterlimit="10" x1="198.74" y1="96.566" x2="198.74" y2="163.3"/>
<polygon display="none" fill="#262625" points="154.99,61.203 172.49,71.307 189.99,61.203 224.99,81.41 198.74,96.566 
	172.49,81.41 146.24,96.566 119.99,81.41 "/>
<polygon display="none" fill="#262625" points="224.99,182.464 189.99,202.671 172.49,192.568 154.99,202.671 119.99,182.464 
	146.225,167.3 172.49,182.464 198.755,167.3 "/>
<polygon display="none" fill="#262625" points="84.99,162.239 111.24,147.083 84.99,131.928 111.24,116.773 84.99,101.618 
	49.99,121.825 67.49,131.928 49.99,142.032 "/>
<polygon display="none" fill="#262625" points="259.99,162.239 233.74,147.083 259.99,131.928 233.74,116.773 259.99,101.618 
	294.99,121.825 277.49,131.928 294.99,142.032 "/>
<path fill="#FFFBF4" d="M12.024,121.825l143.065,84.898h35.001l144.912-84.898l-6.494,251.59c0,0-114.287,68.307-119.781,68.307
	s-36.361,7.692-36.361,7.692L12.024,374.206V121.825z"/>
<g display="none">
	<g display="inline">
		
			<line fill="none" stroke="#FF6600" stroke-linecap="round" stroke-linejoin="round" x1="224.991" y1="283.479" x2="329.051" y2="343.558"/>
		<g>
			<polygon fill="#FF6600" points="324.136,345.442 323.912,344.468 328.718,343.366 327.269,338.653 328.226,338.36 
				329.989,344.101 			"/>
		</g>
	</g>
</g>
<line display="none" fill="none" stroke="#FF6600" stroke-linecap="round" stroke-linejoin="round" stroke-miterlimit="10" x1="111.245" y1="217.808" x2="119.989" y2="222.855"/>
<g display="none">
	<g display="inline">
		
			<line fill="none" stroke="#FF6600" stroke-linecap="round" stroke-linejoin="round" x1="0.94" y1="154.123" x2="49.984" y2="182.438"/>
		<g>
			<polygon fill="#FF6600" points="1.765,159.321 2.721,159.028 1.271,154.315 6.078,153.214 5.854,152.238 0,153.582 			"/>
		</g>
	</g>
</g>
<g display="none">
	<g display="inline">
		
			<line fill="none" stroke="#FF6600" stroke-linecap="round" stroke-linejoin="round" x1="0.94" y1="133.916" x2="49.984" y2="162.231"/>
		<g>
			<polygon fill="#FF6600" points="1.765,139.114 2.721,138.821 1.271,134.108 6.078,133.007 5.854,132.031 0,133.374 			"/>
		</g>
	</g>
</g>
<g display="none">
	<g display="inline">
		
			<line fill="none" stroke="#FF6600" stroke-linecap="round" stroke-linejoin="round" x1="119.979" y1="283.484" x2="15.929" y2="343.558"/>
		<g>
			<polygon fill="#FF6600" points="16.753,338.359 17.71,338.652 16.261,343.365 21.067,344.467 20.843,345.442 14.989,344.099 			
				"/>
		</g>
	</g>
</g>
<line display="none" fill="none" stroke="#FF6600" stroke-linecap="round" stroke-linejoin="round" stroke-miterlimit="10" x1="233.734" y1="217.808" x2="224.983" y2="222.86"/>
<g display="none">
	<g display="inline">
		
			<line fill="none" stroke="#FF6600" stroke-linecap="round" stroke-linejoin="round" x1="344.04" y1="154.123" x2="295.003" y2="182.434"/>
		<g>
			<polygon fill="#FF6600" points="339.125,152.238 338.9,153.213 343.707,154.314 342.258,159.027 343.215,159.321 344.979,153.58 
							"/>
		</g>
	</g>
</g>
<g display="none">
	<g display="inline">
		
			<line fill="none" stroke="#FF6600" stroke-linecap="round" stroke-linejoin="round" x1="119.98" y1="264.179" x2="16.359" y2="324.004"/>
		<g>
			<polygon fill="#FF6600" points="17.184,318.806 18.141,319.099 16.691,323.812 21.498,324.913 21.273,325.889 15.42,324.546 			
				"/>
		</g>
	</g>
</g>
<line display="none" fill="none" stroke="#FF6600" stroke-linecap="round" stroke-linejoin="round" stroke-miterlimit="10" x1="233.74" y1="198.5" x2="224.989" y2="203.552"/>
<g display="none">
	<g display="inline">
		
			<line fill="none" stroke="#FF6600" stroke-linecap="round" stroke-linejoin="round" x1="344.47" y1="134.569" x2="294.708" y2="163.3"/>
		<g>
			<polygon fill="#FF6600" points="339.556,132.684 339.331,133.66 344.137,134.761 342.688,139.474 343.645,139.767 
				345.409,134.026 			"/>
		</g>
	</g>
</g>
<g display="none">
	<g display="inline">
		
			<line fill="none" stroke="#FF6600" stroke-linecap="round" stroke-linejoin="round" x1="189.99" y1="140.032" x2="189.99" y2="1.084"/>
		<g>
			<polygon fill="#FF6600" points="194.08,4.398 193.348,5.08 189.991,1.468 186.633,5.08 185.901,4.398 189.991,0 			"/>
		</g>
	</g>
</g>
<g display="none">
	<g display="inline">
		
			<line fill="none" stroke="#FF6600" stroke-linecap="round" stroke-linejoin="round" x1="154.991" y1="162.239" x2="154.991" y2="42.08"/>
		<g>
			<polygon fill="#FF6600" points="159.08,45.394 158.348,46.076 154.991,42.464 151.634,46.076 150.902,45.394 154.991,40.996 			
				"/>
		</g>
	</g>
</g>
<g display="none">
	<g display="inline">
		
			<line fill="none" stroke="#FF6600" stroke-linecap="round" stroke-linejoin="round" x1="224.989" y1="263.271" x2="329.051" y2="323.351"/>
		<g>
			<polygon fill="#FF6600" points="324.136,325.235 323.912,324.26 328.718,323.159 327.269,318.446 328.226,318.152 
				329.989,323.894 			"/>
		</g>
	</g>
</g>
<line display="none" fill="none" stroke="#FF6600" stroke-linecap="round" stroke-linejoin="round" stroke-miterlimit="10" x1="111.238" y1="197.596" x2="119.98" y2="202.644"/>
</svg>
