<?xml version="1.0" encoding="utf-8"?>
<!-- Generator: Adobe Illustrator 15.0.0, SVG Export Plug-In . SVG Version: 6.00 Build 0)  -->
<!DOCTYPE svg PUBLIC "-//W3C//DTD SVG 1.1//EN" "http://www.w3.org/Graphics/SVG/1.1/DTD/svg11.dtd">
<svg version="1.1" id="Layer_1" xmlns="http://www.w3.org/2000/svg" xmlns:xlink="http://www.w3.org/1999/xlink" x="0px" y="0px"
	 width="423px" height="711px" viewBox="0 0 423 711" enable-background="new 0 0 423 711" xml:space="preserve">


	<g>
		
			<polygon fill="none" stroke="#262625" stroke-width="2" stroke-linecap="round" stroke-linejoin="round" stroke-miterlimit="10" points="
			253.99,328.464 218.99,348.671 201.49,338.568 183.99,348.671 148.99,328.464 175.225,313.3 201.49,328.464 227.755,313.3 		"/>
		
			<polyline fill="none" stroke="#262625" stroke-width="0.9406" stroke-linecap="round" stroke-linejoin="round" stroke-miterlimit="10" points="
			253.99,550.727 218.99,570.934 201.49,560.83 183.99,570.934 148.99,550.727 		"/>
		
			<line fill="none" stroke="#262625" stroke-linecap="round" stroke-linejoin="round" stroke-miterlimit="10" x1="253.5" y1="328" x2="253.5" y2="551"/>
		
			<line fill="none" stroke="#262625" stroke-linecap="round" stroke-linejoin="round" stroke-miterlimit="10" x1="218.5" y1="349" x2="218.5" y2="571"/>
		
			<line fill="none" stroke="#262625" stroke-linecap="round" stroke-linejoin="round" stroke-miterlimit="10" x1="201.5" y1="339" x2="201.5" y2="561"/>
		
			<line fill="none" stroke="#262625" stroke-linecap="round" stroke-linejoin="round" stroke-miterlimit="10" x1="183.5" y1="349" x2="183.5" y2="571"/>
		
			<line fill="none" stroke="#262625" stroke-linecap="round" stroke-linejoin="round" stroke-miterlimit="10" x1="148.5" y1="328" x2="148.5" y2="551"/>
		
			<polyline fill="none" stroke="#262625" stroke-width="0.9406" stroke-linecap="round" stroke-linejoin="round" stroke-miterlimit="10" points="
			323.99,510.313 288.99,530.52 262.74,515.363 		"/>
		
			<polyline fill="none" stroke="#262625" stroke-width="0.9406" stroke-linecap="round" stroke-linejoin="round" stroke-miterlimit="10" points="
			323.99,288.032 288.99,308.239 262.74,293.083 		"/>
		<polyline fill="none" stroke="#262625" stroke-linecap="round" stroke-linejoin="round" stroke-miterlimit="10" points="
			262.5,515 262.5,293.083 288.87,277.928 262.68,262.773 288.96,247.618 323.976,267.825 306.237,277.928 323.5,288.032 323.5,510 
					"/>
		
			<line fill="none" stroke="#262625" stroke-linecap="round" stroke-linejoin="round" stroke-miterlimit="10" x1="288.5" y1="308" x2="288.5" y2="531"/>
		
			<line fill="none" stroke="#262625" stroke-linecap="round" stroke-linejoin="round" stroke-miterlimit="10" x1="262.5" y1="263" x2="262.5" y2="291"/>
		
			<line fill="none" stroke="#262625" stroke-linecap="round" stroke-linejoin="round" stroke-miterlimit="10" x1="323.5" y1="268" x2="323.5" y2="286"/>
		
			<polyline fill="none" stroke="#262625" stroke-width="0.9406" stroke-linecap="round" stroke-linejoin="round" stroke-miterlimit="10" points="
			78.99,510.313 113.99,530.52 140.24,515.363 		"/>
		
			<polyline fill="none" stroke="#262625" stroke-width="0.9406" stroke-linecap="round" stroke-linejoin="round" stroke-miterlimit="10" points="
			78.99,288.032 113.99,308.239 140.24,293.083 		"/>
		<polyline fill="none" stroke="#262625" stroke-linecap="round" stroke-linejoin="round" stroke-miterlimit="10" points="
			140.5,515 140.5,293.083 114.12,277.928 140.305,262.773 114.022,247.618 79.006,267.825 96.253,277.928 78.5,288.032 78.5,510 		
			"/>
		
			<line fill="none" stroke="#262625" stroke-linecap="round" stroke-linejoin="round" stroke-miterlimit="10" x1="113.5" y1="308" x2="113.5" y2="531"/>
		
			<line fill="none" stroke="#262625" stroke-linecap="round" stroke-linejoin="round" stroke-miterlimit="10" x1="140.5" y1="263" x2="140.5" y2="291"/>
		
			<line fill="none" stroke="#262625" stroke-linecap="round" stroke-linejoin="round" stroke-miterlimit="10" x1="78.5" y1="268" x2="78.5" y2="286"/>
		
			<polygon fill="none" stroke="#262625" stroke-width="2" stroke-linecap="round" stroke-linejoin="round" stroke-miterlimit="10" points="
			183.99,207.203 201.49,217.307 218.99,207.203 253.99,227.41 227.74,242.566 201.49,227.41 175.24,242.566 148.99,227.41 		"/>
		
			<line fill="none" stroke="#262625" stroke-linecap="round" stroke-linejoin="round" stroke-miterlimit="10" x1="253.5" y1="227" x2="253.5" y2="324"/>
		
			<line fill="none" stroke="#262625" stroke-linecap="round" stroke-linejoin="round" stroke-miterlimit="10" x1="201.5" y1="227" x2="201.5" y2="324"/>
		
			<line fill="none" stroke="#262625" stroke-linecap="round" stroke-linejoin="round" stroke-miterlimit="10" x1="175.5" y1="243" x2="175.5" y2="309"/>
		
			<line fill="none" stroke="#262625" stroke-linecap="round" stroke-linejoin="round" stroke-miterlimit="10" x1="148.5" y1="227" x2="148.5" y2="324"/>
		
			<line fill="none" stroke="#262625" stroke-linecap="round" stroke-linejoin="round" stroke-miterlimit="10" x1="227.5" y1="243" x2="227.5" y2="309"/>
	</g>
	
		<polygon fill="none" stroke="#262625" stroke-width="2" stroke-linecap="round" stroke-linejoin="round" stroke-miterlimit="10" points="
		78.5,288.032 96.253,277.928 79.006,267.825 114.022,247.618 140.305,262.773 114.12,277.928 140.5,293.083 113.99,308.239 	"/>
	
		<polygon fill="none" stroke="#262625" stroke-width="2" stroke-linecap="round" stroke-linejoin="round" stroke-miterlimit="10" points="
		324.5,287.782 306.746,277.678 323.994,267.575 288.978,247.368 262.695,262.523 288.88,277.678 262.5,292.833 289.01,307.989 	"/>

</svg>
